<svg preserveAspectRatio="none" width="100%" height="100%" overflow="visible" style="display: block;" viewBox="0 0 65 22" fill="none" xmlns="http://www.w3.org/2000/svg">
<g id="&#229;&#156;&#150;&#229;&#177;&#164;_1">
<path id="Vector" d="M33.3757 3.554L33.368 3.5473C32.9844 3.19588 32.4895 3.015 31.8975 3.0083H26.2371L23.6543 17.9675H26.9611L27.9716 11.8582H30.7604C31.3671 11.8771 31.8585 11.765 32.2243 11.5239C32.6085 11.287 32.8755 10.7668 33.0134 9.97752L33.8179 4.9292C33.9221 4.32686 33.7782 3.878 33.3757 3.554ZM30.179 9.27895H28.2492L28.8015 5.59793H30.7846L30.179 9.27895Z" fill="var(--fill-0, white)"/>
<path id="Vector_2" d="M60.5275 3.554L60.5198 3.5473C60.1362 3.19588 59.6413 3.015 59.0493 3.0083H53.3847L50.8037 17.9693H54.1105L55.121 11.8601H57.9098C58.5165 11.8789 59.0079 11.7669 59.3737 11.5257C59.7579 11.2888 60.0249 10.7687 60.1622 9.97935L60.9673 4.93103C61.0715 4.32687 60.9277 3.878 60.5275 3.554ZM57.2917 9.27896H55.3619L55.9142 5.59793H57.8973L57.2917 9.27896Z" fill="var(--fill-0, white)"/>
<path id="Vector_3" d="M51.148 3.61509C50.8118 3.23383 50.1938 3.03955 49.3129 3.03955H45.5243C45.1678 3.0488 44.8126 3.08955 44.4629 3.16136H44.451C44.1983 3.19729 44.01 3.28316 43.8922 3.42141L43.881 3.43299C43.7453 3.56319 43.652 3.73337 43.614 3.92022L43.6075 3.94092C43.5061 4.2037 43.4251 4.47436 43.3654 4.75034L41.3621 16.3135C41.3029 16.7319 41.2858 17.0669 41.3142 17.3093V17.3172C41.3278 17.52 41.3911 17.6705 41.5072 17.7777C41.5829 17.8434 41.7564 17.9342 42.1358 17.9805C42.5083 18.0007 42.8816 18.0007 43.2541 17.9805H47.595C48.2219 17.9994 48.6606 17.8897 48.9062 17.6552C49.1371 17.3976 49.3112 16.9329 49.4236 16.2733L50.1879 12.2153H47.1789L46.5366 15.6131H44.6026L46.4448 5.62491H48.425L47.82 8.83576H50.8106L51.3931 5.42515C51.5382 4.58468 51.4565 3.97564 51.148 3.61509Z" fill="var(--fill-0, white)"/>
<path id="Vector_4" d="M23.9708 3.49364C23.8423 3.33042 23.6375 3.21165 23.3616 3.14039C23.0858 3.06914 22.7051 3.0332 22.2132 3.0332H18.2641C17.4703 3.0332 16.9541 3.19277 16.7285 3.50643C16.4918 3.85419 16.2928 4.3536 16.1443 4.99004L13.7764 17.9741L16.9559 18.0003L18.0261 11.7522H20.0051L18.8887 18.0028H21.845L23.9548 5.89934C24.0874 5.2702 24.1614 4.76653 24.1756 4.39684C24.1685 4.00523 24.0986 3.70132 23.9708 3.49364ZM20.352 9.2795H18.4222L19.0929 5.59848H21.076L20.352 9.2795Z" fill="var(--fill-0, white)"/>
<path id="Vector_5" d="M14.2554 3.68499C13.9475 3.24405 13.4781 3.03027 12.8198 3.03027H6.70118L4 17.9694H10.0624C10.5508 17.9956 10.9533 17.9761 11.2588 17.9085C11.55 17.8524 11.7732 17.7428 11.9253 17.5814L11.9372 17.5705C12.115 17.4141 12.2487 17.2116 12.3243 16.9839C12.4013 16.6916 12.4806 16.3237 12.5611 15.8877L13.1815 12.5989C13.265 12.2572 13.2674 11.9801 13.1886 11.7761C13.0788 11.5626 12.9356 11.3692 12.7648 11.2036C12.5911 11.0705 12.3956 10.9707 12.1876 10.9088L12.174 10.9039C11.9147 10.804 11.6915 10.7212 11.511 10.6603L10.9148 10.4605L11.5157 10.3649C11.9686 10.293 12.4812 10.1213 13.0389 9.85028C13.5314 9.55003 13.8161 9.15232 13.9096 8.63221L14.5064 5.46521C14.6484 4.7234 14.5638 4.12045 14.2554 3.68499ZM9.51957 15.4303H7.5921L8.26577 11.7761H10.2495L9.51957 15.4303ZM10.6337 9.1572H8.70619L9.3769 5.47617H11.36L10.6337 9.1572Z" fill="var(--fill-0, white)"/>
<path id="Vector_6" d="M40.4468 15.2478L36.6167 15.2295L38.8739 3H35.827L33.1963 17.9695H39.9774L40.4592 15.2295H40.4456L40.4468 15.2478Z" fill="var(--fill-0, white)"/>
</g>
</svg>
